<svg width="76" height="72" viewBox="0 0 76 72" fill="none" xmlns="http://www.w3.org/2000/svg">
<path d="M22.3242 53.853V38.2059C22.3242 34.056 23.9727 30.0761 26.9071 27.1418C29.8415 24.2074 33.8214 22.5588 37.9713 22.5588C42.1211 22.5588 46.101 24.2074 49.0354 27.1418C51.9698 30.0761 53.6183 34.056 53.6183 38.2059V53.853" stroke="#0F4C81" stroke-width="5" stroke-linecap="round" stroke-linejoin="round"/>
<path d="M63.0068 13.1706L60.2686 15.9088M2.76562 38.2059H6.67739H2.76562ZM37.9715 3V6.91176V3ZM69.2656 38.2059H73.1774H69.2656ZM12.9362 13.1706L15.6744 15.9088L12.9362 13.1706Z" stroke="#0F4C81" stroke-width="5" stroke-linecap="round" stroke-linejoin="round"/>
<path d="M57.5294 53.8529H18.4118C16.2514 53.8529 14.5 55.6043 14.5 57.7647V65.5882C14.5 67.7486 16.2514 69.5 18.4118 69.5H57.5294C59.6898 69.5 61.4412 67.7486 61.4412 65.5882V57.7647C61.4412 55.6043 59.6898 53.8529 57.5294 53.8529Z" fill="#42FF8A" stroke="#0F4C81" stroke-width="5" stroke-linecap="round" stroke-linejoin="round"/>
</svg>
