<svg width="58" height="65" viewBox="0 0 58 65" fill="none" xmlns="http://www.w3.org/2000/svg">
<path d="M9.55555 62C13.1761 62 16.1111 59.065 16.1111 55.4444C16.1111 51.8239 13.1761 48.8889 9.55555 48.8889C5.93502 48.8889 3 51.8239 3 55.4444C3 59.065 5.93502 62 9.55555 62Z" fill="#42FF8A" stroke="#0F4C81" stroke-width="5" stroke-linecap="round" stroke-linejoin="round"/>
<path d="M48.8905 16.1111C52.5111 16.1111 55.4461 13.1761 55.4461 9.55555C55.4461 5.93502 52.5111 3 48.8905 3C45.27 3 42.335 5.93502 42.335 9.55555C42.335 13.1761 45.27 16.1111 48.8905 16.1111Z" fill="#42FF8A" stroke="#0F4C81" stroke-width="5" stroke-linecap="round" stroke-linejoin="round"/>
<path d="M29.2257 55.4445H43.9757C47.0183 55.4445 49.9363 54.2358 52.0878 52.0843C54.2392 49.9329 55.4479 47.0149 55.4479 43.9722C55.4479 40.9296 54.2392 38.0116 52.0878 35.8602C49.9363 33.7087 47.0183 32.5 43.9757 32.5H17.7535C14.7108 32.5 11.7928 31.2914 9.64138 29.1399C7.48993 26.9884 6.28125 24.0704 6.28125 21.0278C6.28125 17.9852 7.48993 15.0672 9.64138 12.9157C11.7928 10.7643 14.7108 9.5556 17.7535 9.5556H29.2257" stroke="#0F4C81" stroke-width="5" stroke-linecap="round" stroke-linejoin="round"/>
</svg>
