<svg width="32" height="32" viewBox="0 0 32 32" fill="none" xmlns="http://www.w3.org/2000/svg">
<path d="M14.1836 18.3415L19.1385 15.713L14.1836 13.1377V18.3415Z" fill="white"/>
<path d="M16 0C7.16353 0 0 7.16353 0 16C0 24.8365 7.16353 32 16 32C24.8365 32 32 24.8365 32 16C32 7.16353 24.8365 0 16 0ZM24.9335 19.7265C24.7203 21.0762 24.0678 21.8092 22.6957 21.9643C21.1622 22.1376 17.7145 22.2174 16.182 22.2174C14.5964 22.2174 11.3894 22.1509 9.78845 22.0175C8.41239 21.903 7.47339 21.1343 7.28423 19.7664C7.14666 18.7703 7.05775 17.5863 7.05775 15.7038C7.05775 13.608 7.13335 12.7213 7.31084 11.7745C7.56424 10.4234 8.20928 9.76898 9.6817 9.61681C11.2268 9.45685 12.6875 9.37703 15.9555 9.37703C17.5532 9.37703 20.9977 9.45977 22.5889 9.6035C23.9786 9.72907 24.7615 10.5792 24.9332 11.9345C25.0529 12.8803 25.1596 14.2343 25.1596 15.6908C25.16 18.2479 24.9335 19.7265 24.9335 19.7265Z" fill="white"/>
</svg>
