<svg width="130" height="42" viewBox="0 0 130 42" fill="none" xmlns="http://www.w3.org/2000/svg">
<path fill-rule="evenodd" clip-rule="evenodd" d="M29.615 38.1266C30.3273 37.5916 30.5503 37.1293 30.5503 36.781C30.5503 36.4328 30.3273 35.9704 29.615 35.4355C28.9155 34.9101 27.8565 34.4057 26.4818 33.969C23.7409 33.0984 19.9088 32.5482 15.6432 32.5482C11.3777 32.5482 7.54555 33.0984 4.80465 33.969C3.42995 34.4057 2.37095 34.9101 1.67139 35.4355C0.959121 35.9704 0.736151 36.4328 0.736151 36.781C0.736151 37.1293 0.959121 37.5916 1.67139 38.1266C2.37095 38.6519 3.42995 39.1564 4.80465 39.5931C7.54555 40.4637 11.3777 41.0139 15.6432 41.0139C19.9088 41.0139 23.7409 40.4637 26.4818 39.5931C27.8565 39.1564 28.9155 38.6519 29.615 38.1266ZM15.6432 41.7501C24.2827 41.7501 31.2864 39.5253 31.2864 36.781C31.2864 34.0367 24.2827 31.812 15.6432 31.812C7.00371 31.812 0 34.0367 0 36.781C0 39.5253 7.00371 41.7501 15.6432 41.7501Z" fill="#42FF8A"/>
<path d="M30.1824 14.8812C30.1824 26.6712 16.8725 37.5904 16.8725 37.5904C16.0948 38.2284 14.822 38.2284 14.0443 37.5904C14.0443 37.5904 0.734375 26.6712 0.734375 14.8812C0.734523 6.74935 7.32664 0.157227 15.4584 0.157227C23.5902 0.157227 30.1824 6.74935 30.1824 14.8812Z" fill="#0F4C81"/>
<path fill-rule="evenodd" clip-rule="evenodd" d="M15.4584 34.4309C15.7711 34.15 16.1766 33.7763 16.6481 33.3199C17.8199 32.1855 19.3787 30.5607 20.93 28.601C24.1284 24.5605 26.8697 19.6277 26.8697 14.8812C26.8697 8.5789 21.7606 3.46991 15.4584 3.46991C9.15623 3.46991 4.0472 8.57885 4.04706 14.8812M15.4584 34.4309C15.1456 34.15 14.7401 33.7763 14.2686 33.3199C13.0968 32.1855 11.538 30.5607 9.98672 28.601C6.78836 24.5605 4.04708 19.6278 4.04706 14.8812M16.8725 37.5904C16.8725 37.5904 30.1824 26.6712 30.1824 14.8812C30.1824 6.74935 23.5902 0.157227 15.4584 0.157227C7.32664 0.157227 0.734523 6.74935 0.734375 14.8812C0.734375 26.6712 14.0443 37.5904 14.0443 37.5904C14.822 38.2284 16.0948 38.2284 16.8725 37.5904Z" fill="#42FF8A"/>
<path fill-rule="evenodd" clip-rule="evenodd" d="M22.8662 13.2246C23.781 13.2246 24.5225 13.9662 24.5225 14.8809C24.5225 19.8802 20.4581 23.9451 15.4585 23.9451C10.4591 23.9451 6.39453 19.8804 6.39453 14.8811C6.39453 13.9663 7.1361 13.2248 8.05087 13.2248C8.96564 13.2248 9.70721 13.9663 9.70721 14.8811C9.70721 18.0509 12.2886 20.6324 15.4585 20.6324C18.6284 20.6324 21.2099 18.0508 21.2099 14.8809C21.2099 13.9662 21.9514 13.2246 22.8662 13.2246Z" fill="#42FF8A"/>
<path d="M40.4772 26.9998V12.0233H50.0715V14.2975H43.1902V18.3634H49.4133V20.6377H43.1902V26.9998H40.4772ZM55.5579 27.2265C54.8461 27.2265 54.205 27.0997 53.6346 26.8462C53.0691 26.5878 52.6206 26.2075 52.2891 25.7054C51.9624 25.2033 51.7991 24.5841 51.7991 23.848C51.7991 23.2142 51.9161 22.6901 52.1501 22.2757C52.3841 21.8613 52.7035 21.5298 53.1081 21.2812C53.5127 21.0326 53.9686 20.8449 54.4756 20.7181C54.9875 20.5865 55.5164 20.4914 56.0624 20.4329C56.7206 20.3647 57.2544 20.3037 57.6639 20.2501C58.0734 20.1916 58.3708 20.1038 58.5561 19.9868C58.7462 19.865 58.8413 19.6773 58.8413 19.4238V19.3799C58.8413 18.829 58.678 18.4024 58.3513 18.1002C58.0247 17.7979 57.5542 17.6468 56.94 17.6468C56.2916 17.6468 55.7772 17.7882 55.397 18.0709C55.0216 18.3537 54.7681 18.6876 54.6364 19.0728L52.1647 18.7217C52.3598 18.0392 52.6815 17.4688 53.13 17.0106C53.5785 16.5474 54.127 16.2013 54.7754 15.9722C55.4238 15.7381 56.1404 15.6211 56.9253 15.6211C57.4665 15.6211 58.0052 15.6845 58.5414 15.8113C59.0777 15.938 59.5677 16.1477 60.0113 16.4402C60.4549 16.7278 60.8108 17.1203 61.079 17.6175C61.352 18.1148 61.4885 18.7364 61.4885 19.4823V26.9998H58.9436V25.4568H58.8559C58.695 25.7688 58.4683 26.0613 58.1758 26.3343C57.8882 26.6024 57.525 26.8194 57.0862 26.9851C56.6523 27.146 56.1429 27.2265 55.5579 27.2265ZM56.2453 25.2813C56.7766 25.2813 57.2373 25.1764 57.6274 24.9668C58.0174 24.7523 58.3172 24.4696 58.5268 24.1185C58.7413 23.7675 58.8486 23.3848 58.8486 22.9704V21.6468C58.7657 21.7151 58.6243 21.7785 58.4244 21.837C58.2294 21.8955 58.0101 21.9467 57.7663 21.9905C57.5225 22.0344 57.2812 22.0734 57.0423 22.1075C56.8035 22.1417 56.5963 22.1709 56.4208 22.1953C56.0259 22.2489 55.6724 22.3367 55.3604 22.4585C55.0484 22.5804 54.8022 22.7511 54.6218 22.9704C54.4414 23.1849 54.3513 23.4628 54.3513 23.8041C54.3513 24.2916 54.5292 24.6597 54.8851 24.9083C55.241 25.1569 55.6944 25.2813 56.2453 25.2813ZM64.1503 26.9998V15.7674H66.6805V17.676H66.8121C67.0462 17.0325 67.4337 16.5304 67.9749 16.1696C68.516 15.804 69.162 15.6211 69.9127 15.6211C70.6733 15.6211 71.3144 15.8064 71.836 16.1769C72.3625 16.5425 72.733 17.0423 72.9475 17.676H73.0645C73.3132 17.052 73.7324 16.5547 74.3223 16.1842C74.9171 15.8088 75.6216 15.6211 76.4357 15.6211C77.4692 15.6211 78.3126 15.9478 78.9659 16.6011C79.6192 17.2543 79.9458 18.2074 79.9458 19.4603V26.9998H77.2913V19.8698C77.2913 19.1727 77.106 18.6632 76.7355 18.3415C76.365 18.0148 75.9116 17.8515 75.3754 17.8515C74.7367 17.8515 74.237 18.0514 73.8762 18.4512C73.5204 18.8461 73.3424 19.3604 73.3424 19.9942V26.9998H70.7464V19.7602C70.7464 19.18 70.5709 18.7169 70.2199 18.3707C69.8737 18.0246 69.4204 17.8515 68.8597 17.8515C68.4795 17.8515 68.1333 17.949 67.8213 18.144C67.5093 18.3342 67.2607 18.6047 67.0754 18.9558C66.8902 19.3019 66.7975 19.7065 66.7975 20.1697V26.9998H64.1503ZM87.6041 27.2191C86.4779 27.2191 85.5053 26.9851 84.6863 26.5171C83.8721 26.0442 83.2457 25.3763 82.8069 24.5134C82.3682 23.6456 82.1488 22.6243 82.1488 21.4494C82.1488 20.294 82.3682 19.2799 82.8069 18.4073C83.2506 17.5298 83.8697 16.8472 84.6644 16.3597C85.459 15.8673 86.3926 15.6211 87.4651 15.6211C88.1574 15.6211 88.8107 15.7333 89.4249 15.9575C90.0441 16.1769 90.5901 16.5182 91.063 16.9813C91.5408 17.4445 91.9161 18.0343 92.1892 18.751C92.4622 19.4628 92.5987 20.311 92.5987 21.2958V22.1075H83.3919V20.3232H90.0612C90.0563 19.8162 89.9466 19.3653 89.7321 18.9704C89.5176 18.5706 89.2178 18.2562 88.8326 18.027C88.4524 17.7979 88.0087 17.6833 87.5017 17.6833C86.9606 17.6833 86.4852 17.815 86.0757 18.0782C85.6662 18.3366 85.3469 18.6779 85.1177 19.102C84.8935 19.5213 84.7789 19.982 84.774 20.4841V22.0417C84.774 22.695 84.8935 23.2556 85.1324 23.7237C85.3713 24.1868 85.7052 24.5427 86.1342 24.7913C86.5632 25.0351 87.0654 25.1569 87.6406 25.1569C88.0258 25.1569 88.3743 25.1033 88.6864 24.9961C88.9984 24.8839 89.2689 24.7206 89.4981 24.5061C89.7272 24.2916 89.9003 24.0259 90.0173 23.709L92.489 23.9869C92.333 24.6402 92.0356 25.2106 91.5968 25.6981C91.1629 26.1807 90.6072 26.5561 89.9295 26.8243C89.2519 27.0875 88.4767 27.2191 87.6041 27.2191ZM99.8109 27.2191C98.6847 27.2191 97.7121 26.9851 96.8931 26.5171C96.0789 26.0442 95.4525 25.3763 95.0137 24.5134C94.5749 23.6456 94.3556 22.6243 94.3556 21.4494C94.3556 20.294 94.5749 19.2799 95.0137 18.4073C95.4573 17.5298 96.0765 16.8472 96.8711 16.3597C97.6658 15.8673 98.5994 15.6211 99.6719 15.6211C100.364 15.6211 101.017 15.7333 101.632 15.9575C102.251 16.1769 102.797 16.5182 103.27 16.9813C103.748 17.4445 104.123 18.0343 104.396 18.751C104.669 19.4628 104.805 20.311 104.805 21.2958V22.1075H95.5987V20.3232H102.268C102.263 19.8162 102.153 19.3653 101.939 18.9704C101.724 18.5706 101.425 18.2562 101.039 18.027C100.659 17.7979 100.215 17.6833 99.7085 17.6833C99.1673 17.6833 98.692 17.815 98.2825 18.0782C97.873 18.3366 97.5537 18.6779 97.3245 19.102C97.1003 19.5213 96.9857 19.982 96.9808 20.4841V22.0417C96.9808 22.695 97.1003 23.2556 97.3391 23.7237C97.578 24.1868 97.912 24.5427 98.341 24.7913C98.77 25.0351 99.2721 25.1569 99.8474 25.1569C100.233 25.1569 100.581 25.1033 100.893 24.9961C101.205 24.8839 101.476 24.7206 101.705 24.5061C101.934 24.2916 102.107 24.0259 102.224 23.709L104.696 23.9869C104.54 24.6402 104.242 25.2106 103.804 25.6981C103.37 26.1807 102.814 26.5561 102.136 26.8243C101.459 27.0875 100.684 27.2191 99.8109 27.2191ZM108.676 27.1606C108.232 27.1606 107.852 27.0046 107.535 26.6926C107.218 26.3806 107.062 26.0003 107.067 25.5518C107.062 25.1131 107.218 24.7377 107.535 24.4257C107.852 24.1137 108.232 23.9577 108.676 23.9577C109.105 23.9577 109.478 24.1137 109.795 24.4257C110.116 24.7377 110.28 25.1131 110.285 25.5518C110.28 25.8492 110.202 26.1198 110.051 26.3635C109.904 26.6073 109.709 26.8023 109.465 26.9486C109.227 27.0899 108.963 27.1606 108.676 27.1606ZM115.665 12.0233V26.9998H113.018V12.0233H115.665ZM120.032 31.19C119.672 31.19 119.338 31.1607 119.031 31.1022C118.728 31.0486 118.487 30.9828 118.307 30.9048L118.921 28.8499C119.496 29.0156 119.979 29.0424 120.369 28.9303C120.764 28.8231 121.088 28.4599 121.341 27.8407L121.568 27.2338L117.495 15.7674H120.303L122.892 24.2502H123.009L125.605 15.7674L128.435 15.782L123.923 28.3599C123.713 28.9449 123.435 29.4495 123.089 29.8737C122.743 30.2978 122.319 30.622 121.817 30.8463C121.319 31.0754 120.725 31.19 120.032 31.19Z" fill="white"/>
</svg>
