<svg width="61" height="70" viewBox="0 0 61 70" fill="none" xmlns="http://www.w3.org/2000/svg">
<path d="M30.3547 40.9485C36.0157 40.9485 40.6047 36.3595 40.6047 30.6985C40.6047 25.0376 36.0157 20.4485 30.3547 20.4485C24.6938 20.4485 20.1047 25.0376 20.1047 30.6985C20.1047 36.3595 24.6938 40.9485 30.3547 40.9485Z" fill="#42FF8A" stroke="#0F4C81" stroke-width="5" stroke-linecap="round" stroke-linejoin="round"/>
<path d="M49.9934 50.0266L35.4965 64.5235C34.2152 65.8035 32.4782 66.5225 30.6671 66.5225C28.8559 66.5225 27.1189 65.8035 25.8376 64.5235L11.3373 50.0266C7.5148 46.2039 4.91169 41.3336 3.85714 36.0315C2.80259 30.7294 3.34397 25.2336 5.4128 20.2392C7.48164 15.2448 10.985 10.976 15.4799 7.97261C19.9748 4.96925 25.2594 3.36621 30.6654 3.36621C36.0713 3.36621 41.3559 4.96925 45.8508 7.97261C50.3457 10.976 53.8491 15.2448 55.9179 20.2392C57.9867 25.2336 58.5281 30.7294 57.4736 36.0315C56.419 41.3336 53.8159 46.2039 49.9934 50.0266V50.0266Z" stroke="#0F4C81" stroke-width="5" stroke-linecap="round" stroke-linejoin="round"/>
</svg>
