<svg width="151" height="32" viewBox="0 0 151 32" fill="none" xmlns="http://www.w3.org/2000/svg">
<path fill-rule="evenodd" clip-rule="evenodd" d="M22.7377 29.2633C23.2756 28.8593 23.444 28.5101 23.444 28.2471C23.444 27.9841 23.2756 27.6349 22.7377 27.2309C22.2094 26.8341 21.4095 26.4531 20.3713 26.1233C18.3013 25.4658 15.4071 25.0502 12.1855 25.0502C8.96402 25.0502 6.06983 25.4658 3.99978 26.1233C2.96155 26.4531 2.16174 26.8341 1.6334 27.2309C1.09546 27.6349 0.927068 27.9841 0.927068 28.2471C0.927068 28.5101 1.09546 28.8593 1.6334 29.2633C2.16174 29.6601 2.96155 30.0411 3.99978 30.3709C6.06983 31.0284 8.96402 31.4439 12.1855 31.4439C15.4071 31.4439 18.3013 31.0284 20.3713 30.3709C21.4095 30.0411 22.2094 29.6601 22.7377 29.2633ZM12.1855 31.9999C18.7105 31.9999 24 30.3197 24 28.2471C24 26.1745 18.7105 24.4943 12.1855 24.4943C5.6606 24.4943 0.371094 26.1745 0.371094 28.2471C0.371094 30.3197 5.6606 31.9999 12.1855 31.9999Z" fill="#0F4C81"/>
<path d="M23.1696 11.7073C23.1696 20.6117 13.1174 28.8583 13.1174 28.8583C12.53 29.3402 11.5688 29.3402 10.9814 28.8583C10.9814 28.8583 0.929199 20.6117 0.929199 11.7073C0.929311 5.56582 5.90797 0.587158 12.0494 0.587158C18.1909 0.587158 23.1696 5.56582 23.1696 11.7073Z" fill="#FBFBFB"/>
<path fill-rule="evenodd" clip-rule="evenodd" d="M12.0494 26.4721C12.2856 26.26 12.5919 25.9778 12.948 25.633C13.833 24.7763 15.0102 23.5492 16.1819 22.0691C18.5974 19.0176 20.6678 15.2922 20.6678 11.7073C20.6678 6.94758 16.8092 3.08904 12.0494 3.08904C7.28976 3.08904 3.43119 6.94754 3.43108 11.7073M12.0494 26.4721C11.8132 26.26 11.507 25.9778 11.1509 25.633C10.2659 24.7763 9.08859 23.5492 7.91698 22.0691C5.50144 19.0176 3.4311 15.2922 3.43108 11.7074M13.1174 28.8583C13.1174 28.8583 23.1696 20.6117 23.1696 11.7073C23.1696 5.56582 18.1909 0.587158 12.0494 0.587158C5.90797 0.587158 0.929311 5.56582 0.929199 11.7073C0.929199 20.6117 10.9814 28.8583 10.9814 28.8583C11.5688 29.3402 12.53 29.3402 13.1174 28.8583Z" fill="#0F4C81"/>
<path fill-rule="evenodd" clip-rule="evenodd" d="M17.6428 10.4563C18.3337 10.4563 18.8937 11.0164 18.8937 11.7072C18.8937 15.4829 15.824 18.5529 12.0482 18.5529C8.27235 18.5529 5.20264 15.483 5.20264 11.7074C5.20264 11.0165 5.7627 10.4564 6.45358 10.4564C7.14445 10.4564 7.70452 11.0165 7.70452 11.7074C7.70452 14.1013 9.65413 16.051 12.0482 16.051C14.4422 16.051 16.3918 14.1012 16.3918 11.7072C16.3918 11.0164 16.9519 10.4563 17.6428 10.4563Z" fill="#0F4C81"/>
<path d="M34.8651 24V5.09091H46.9787V7.96236H38.2905V13.0959H46.1477V15.9673H38.2905V24H34.8651ZM53.9057 24.2862C53.007 24.2862 52.1976 24.1262 51.4775 23.8061C50.7634 23.4799 50.1971 22.9998 49.7786 22.3658C49.3662 21.7318 49.16 20.95 49.16 20.0206C49.16 19.2204 49.3077 18.5587 49.6032 18.0355C49.8986 17.5123 50.3018 17.0938 50.8127 16.7798C51.3236 16.4659 51.8991 16.2289 52.5392 16.0689C53.1855 15.9027 53.8534 15.7827 54.5428 15.7088C55.3738 15.6226 56.0478 15.5457 56.5648 15.478C57.0819 15.4041 57.4573 15.2933 57.6912 15.1456C57.9313 14.9917 58.0513 14.7547 58.0513 14.4347V14.3793C58.0513 13.6837 57.8451 13.1451 57.4327 12.7635C57.0203 12.3819 56.4263 12.1911 55.6507 12.1911C54.8321 12.1911 54.1827 12.3696 53.7026 12.7266C53.2286 13.0836 52.9086 13.5052 52.7424 13.9915L49.6216 13.5483C49.8678 12.6866 50.2741 11.9664 50.8404 11.3878C51.4067 10.803 52.0991 10.366 52.9178 10.0767C53.7364 9.78125 54.6413 9.63352 55.6323 9.63352C56.3155 9.63352 56.9957 9.71354 57.6728 9.87358C58.3498 10.0336 58.9685 10.2983 59.5286 10.6676C60.0887 11.0308 60.5381 11.5263 60.8766 12.1541C61.2213 12.782 61.3936 13.5668 61.3936 14.5085V24H58.1806V22.0518H58.0698C57.8667 22.4458 57.5804 22.8151 57.2111 23.1598C56.848 23.4983 56.3894 23.7723 55.8354 23.9815C55.2876 24.1847 54.6444 24.2862 53.9057 24.2862ZM54.7736 21.8303C55.4445 21.8303 56.0262 21.6979 56.5186 21.4332C57.0111 21.1624 57.3896 20.8054 57.6543 20.3622C57.9251 19.919 58.0605 19.4358 58.0605 18.9126V17.2415C57.9559 17.3277 57.7774 17.4077 57.525 17.4815C57.2788 17.5554 57.0018 17.62 56.6941 17.6754C56.3863 17.7308 56.0816 17.7801 55.78 17.8232C55.4784 17.8662 55.2168 17.9032 54.9952 17.9339C54.4966 18.0017 54.0504 18.1125 53.6564 18.2663C53.2625 18.4202 52.9516 18.6357 52.7239 18.9126C52.4962 19.1835 52.3823 19.5343 52.3823 19.9652C52.3823 20.5807 52.6069 21.0455 53.0563 21.3594C53.5056 21.6733 54.0781 21.8303 54.7736 21.8303ZM64.7544 24V9.81818H67.949V12.228H68.1152C68.4107 11.4155 68.9 10.7815 69.5833 10.326C70.2665 9.86435 71.0821 9.63352 72.03 9.63352C72.9902 9.63352 73.7997 9.86742 74.4583 10.3352C75.123 10.7969 75.5908 11.4278 75.8617 12.228H76.0094C76.3233 11.4401 76.8527 10.8123 77.5975 10.3445C78.3484 9.8705 79.2379 9.63352 80.2658 9.63352C81.5707 9.63352 82.6356 10.0459 83.4604 10.8707C84.2852 11.6955 84.6976 12.8989 84.6976 14.4808V24H81.3461V14.9979C81.3461 14.1177 81.1122 13.4744 80.6444 13.0682C80.1766 12.6558 79.6041 12.4496 78.927 12.4496C78.1207 12.4496 77.4898 12.7019 77.0343 13.2067C76.5849 13.7053 76.3603 14.3546 76.3603 15.1548V24H73.0826V14.8594C73.0826 14.1269 72.861 13.5421 72.4178 13.1051C71.9808 12.6681 71.4083 12.4496 70.7005 12.4496C70.2203 12.4496 69.7833 12.5727 69.3894 12.8189C68.9954 13.0589 68.6815 13.4006 68.4476 13.8438C68.2137 14.2808 68.0968 14.7917 68.0968 15.3764V24H64.7544ZM94.3668 24.277C92.945 24.277 91.717 23.9815 90.6829 23.3906C89.6549 22.7936 88.864 21.9503 88.31 20.8608C87.756 19.7652 87.479 18.4756 87.479 16.9922C87.479 15.5334 87.756 14.2531 88.31 13.1513C88.8701 12.0433 89.6519 11.1816 90.6552 10.5661C91.6585 9.94437 92.8372 9.63352 94.1914 9.63352C95.0655 9.63352 95.8903 9.77509 96.6658 10.0582C97.4476 10.3352 98.137 10.7661 98.734 11.3509C99.3372 11.9356 99.8112 12.6804 100.156 13.5852C100.501 14.4839 100.673 15.5549 100.673 16.7983V17.8232H89.0487V15.5703H97.4691C97.463 14.9302 97.3245 14.3608 97.0536 13.8622C96.7828 13.3575 96.4042 12.9605 95.918 12.6712C95.4379 12.3819 94.8777 12.2372 94.2376 12.2372C93.5543 12.2372 92.9542 12.4034 92.4371 12.7358C91.9201 13.062 91.5169 13.4929 91.2276 14.0284C90.9445 14.5578 90.7998 15.1394 90.7937 15.7734V17.7401C90.7937 18.5649 90.9445 19.2727 91.2461 19.8636C91.5477 20.4484 91.9693 20.8977 92.511 21.2116C93.0527 21.5194 93.6867 21.6733 94.413 21.6733C94.8993 21.6733 95.3394 21.6056 95.7333 21.4702C96.1272 21.3286 96.4689 21.1224 96.7582 20.8516C97.0475 20.5807 97.266 20.2453 97.4137 19.8452L100.534 20.196C100.337 21.0208 99.962 21.741 99.408 22.3565C98.8602 22.9659 98.1585 23.4399 97.3029 23.7784C96.4473 24.1108 95.4686 24.277 94.3668 24.277ZM109.779 24.277C108.357 24.277 107.129 23.9815 106.095 23.3906C105.067 22.7936 104.276 21.9503 103.722 20.8608C103.168 19.7652 102.891 18.4756 102.891 16.9922C102.891 15.5334 103.168 14.2531 103.722 13.1513C104.282 12.0433 105.064 11.1816 106.067 10.5661C107.071 9.94437 108.249 9.63352 109.604 9.63352C110.478 9.63352 111.302 9.77509 112.078 10.0582C112.86 10.3352 113.549 10.7661 114.146 11.3509C114.749 11.9356 115.223 12.6804 115.568 13.5852C115.913 14.4839 116.085 15.5549 116.085 16.7983V17.8232H104.461V15.5703H112.881C112.875 14.9302 112.737 14.3608 112.466 13.8622C112.195 13.3575 111.816 12.9605 111.33 12.6712C110.85 12.3819 110.29 12.2372 109.65 12.2372C108.966 12.2372 108.366 12.4034 107.849 12.7358C107.332 13.062 106.929 13.4929 106.64 14.0284C106.357 14.5578 106.212 15.1394 106.206 15.7734V17.7401C106.206 18.5649 106.357 19.2727 106.658 19.8636C106.96 20.4484 107.381 20.8977 107.923 21.2116C108.465 21.5194 109.099 21.6733 109.825 21.6733C110.311 21.6733 110.751 21.6056 111.145 21.4702C111.539 21.3286 111.881 21.1224 112.17 20.8516C112.46 20.5807 112.678 20.2453 112.826 19.8452L115.947 20.196C115.75 21.0208 115.374 21.741 114.82 22.3565C114.272 22.9659 113.571 23.4399 112.715 23.7784C111.859 24.1108 110.881 24.277 109.779 24.277ZM120.972 24.2031C120.411 24.2031 119.931 24.0062 119.531 23.6122C119.131 23.2183 118.934 22.7382 118.94 22.1719C118.934 21.6179 119.131 21.1439 119.531 20.75C119.931 20.3561 120.411 20.1591 120.972 20.1591C121.513 20.1591 121.984 20.3561 122.384 20.75C122.79 21.1439 122.997 21.6179 123.003 22.1719C122.997 22.5473 122.898 22.889 122.707 23.1967C122.523 23.5045 122.277 23.7507 121.969 23.9354C121.667 24.1139 121.335 24.2031 120.972 24.2031ZM129.796 5.09091V24H126.454V5.09091H129.796ZM135.31 29.2905C134.855 29.2905 134.433 29.2536 134.045 29.1797C133.664 29.112 133.359 29.0289 133.131 28.9304L133.907 26.3359C134.633 26.5452 135.243 26.5791 135.735 26.4375C136.234 26.3021 136.643 25.8435 136.963 25.0618L137.249 24.2955L132.107 9.81818H135.652L138.92 20.5284H139.068L142.346 9.81818L145.919 9.83665L140.222 25.7173C139.958 26.456 139.607 27.093 139.17 27.6286C138.733 28.1641 138.197 28.5734 137.563 28.8565C136.935 29.1458 136.184 29.2905 135.31 29.2905Z" fill="#0F4C81"/>
</svg>
