<svg width="271" height="27" viewBox="0 0 271 27" fill="none" xmlns="http://www.w3.org/2000/svg">
<path d="M62.0529 17.0119L63.0881 16.8841C62.2829 17.0439 61.4203 17.1717 60.5576 17.2996C59.695 17.4274 58.8324 17.5872 57.9697 17.683C57.1071 17.8109 56.1869 17.9387 55.3243 18.0346C54.4616 18.1624 53.5415 18.2902 52.6788 18.4181C53.714 18.45 54.8067 18.45 55.8994 18.45C56.9921 18.482 58.0847 18.482 59.1199 18.45C59.6375 18.45 60.2126 18.4181 60.7302 18.4181C61.2478 18.4181 61.7654 18.3861 62.2829 18.3542C63.3181 18.2902 64.3533 18.1944 65.3309 18.0665C69.2416 17.5872 72.6347 16.5326 74.8775 14.2635C75.6252 15.2223 77.9256 15.6697 80.0534 15.8614C82.1813 16.0532 84.1366 15.9573 84.0791 15.7017C85.5168 15.1903 87.0121 14.711 88.5073 14.2955C87.4146 14.5512 86.3795 14.8388 85.3443 15.1264C86.3795 14.8388 87.4146 14.5512 88.5073 14.2955C93.3956 13.0172 98.744 12.378 104.38 12.0904C110.016 11.8028 115.824 11.8667 121.805 12.0584C125.083 12.1224 131.237 12.1543 137.391 12.2822C143.544 12.41 149.755 12.6017 153.148 12.8894C154.126 12.9533 155.103 13.0172 156.081 13.0811C154.413 12.8894 154.413 12.8894 152.803 12.7296C156.944 12.1543 160.682 11.643 164.363 11.2915C163.73 11.0038 163.615 10.7162 162.062 10.3008L163.902 10.4925C165.628 9.6616 169.538 9.72551 171.379 9.37398C170.976 9.82139 172.414 9.91726 173.679 9.98118L173.162 9.69356C177.992 9.91726 183.628 9.6616 187.941 9.82139C188.517 9.82139 188.977 10.0131 189.207 10.1729C190.587 10.109 191.967 10.0131 193.347 9.94922C192.945 10.5245 196.683 10.5884 194.67 10.908C196.223 10.6203 197.776 10.6203 199.328 10.5884C200.881 10.5884 202.376 10.5884 203.872 10.3008C214.338 10.7482 225.495 11.1956 236.307 11.643L236.135 11.3873C237.112 11.4193 238.032 11.3873 239.01 11.3554C239.988 11.3234 240.965 11.2915 241.943 11.2915C243.898 11.2915 245.969 11.4193 248.097 11.9626C249.879 11.8667 252.007 11.9306 253.905 11.9306C254.883 11.8987 255.745 11.8987 256.551 11.8347C257.356 11.7708 258.046 11.643 258.563 11.4193C260.461 11.7389 261.899 11.8028 263.337 11.8987C264.774 11.9945 266.212 12.0904 268.11 12.378C267.88 11.9945 268.858 12.0265 269.778 12.0584C270.698 12.0904 271.388 12.1224 270.755 11.6749C268.973 10.3008 268.282 10.9399 266.73 9.82139L266.672 10.0131C257.586 6.88125 247.579 4.58028 237.285 2.98238C230.096 2.63084 222.677 1.48036 215.374 1.09686C207.495 0.777283 198.983 0.777283 192.312 1.0649C190.702 1.19274 189.609 0.649451 188.287 0.329871C182.133 0.457703 174.427 0.106165 167.583 0.425745C167.698 0.425745 167.813 0.425745 167.928 0.457703C164.305 0.521619 161.602 -0.0855826 158.036 0.0102913C158.036 0.170081 157.519 0.202039 157.231 0.297913C156.944 -0.117541 151.71 0.329871 146.42 0.841199C141.129 1.35253 135.78 1.95973 135.148 1.73602C134.803 1.76798 134.4 1.8319 133.997 1.86385C126.521 1.67211 118.527 0.361829 112.029 0.80924C110.706 1.25665 109.153 1.67211 108.061 2.18343C106.853 1.89581 106.738 2.56693 105.358 2.56693C101.562 1.16078 99.6067 1.99169 101.562 2.4391C100.124 2.63084 98.6865 2.75868 97.3063 2.85455C95.9261 2.95042 94.5458 3.0463 93.2806 3.17413C92.1304 3.39784 90.9802 3.58958 89.83 3.84525C88.8524 4.06895 88.2198 3.87721 87.5872 3.55763C85.0568 4.037 85.6894 3.55763 82.9289 3.6535C82.5263 3.39784 80.8586 3.81329 79.2483 4.2607C77.638 4.74007 76.0277 5.2514 75.6252 5.18748L76.0277 5.05965C74.4175 5.18748 73.0372 5.05965 71.5995 4.93182C70.9094 4.8679 70.1618 4.80399 69.4716 4.80399C68.724 4.77203 68.0339 4.80399 67.2288 4.89986C62.858 5.28336 58.4298 6.01839 54.1166 6.78538C49.8033 7.61629 45.6051 8.47915 41.6945 9.24614C42.0395 9.82139 43.3048 8.73482 43.8799 9.46985C39.3366 10.3327 34.2757 10.7482 29.7325 11.8667C28.8123 11.9306 27.6046 11.9626 27.087 11.8987C25.4768 12.1224 26.4544 12.378 25.3617 12.6337L24.7867 12.1863C23.6365 13.0172 22.0837 12.3461 20.8185 12.9533C20.9335 13.177 20.4159 13.3368 19.8983 13.4966C19.6108 13.2409 19.2657 13.3687 18.8632 13.5285C18.5181 13.6563 18.173 13.8161 17.943 13.5605V13.5924C17.6555 13.6883 17.4829 13.7842 17.0229 13.8161C16.8503 14.0079 15.7576 14.8707 14.7225 15.7336C13.7448 16.6284 12.7671 17.5233 12.5946 17.715L12.2496 17.747C11.5019 18.0346 11.6169 18.514 12.1345 18.4181C11.7895 18.514 11.5019 18.6418 11.1569 18.7377L11.2144 18.6737L10.2942 18.9933C10.0642 19.0253 9.60411 18.8655 9.60411 18.5779C9.31656 18.9614 8.79897 19.249 8.22388 19.3768C10.0642 19.0892 12.3071 18.7696 14.4349 18.7057C14.0324 19.0892 12.5946 19.249 11.962 19.5686C10.8118 19.5686 8.79897 19.9521 7.24621 20.2716C7.01618 20.3995 7.53376 21.0067 6.61361 21.0386C5.80847 20.8149 5.92349 21.3582 5.06085 21.3263C5.40591 20.8788 6.09602 20.7191 6.72863 20.4953C6.03851 20.1119 4.88832 20.8469 4.25571 20.9428C4.1982 21.1665 2.81797 21.518 2.30039 21.9654C2.07035 21.4221 1.38023 21.9974 0.632606 21.9654C0.0575096 22.1572 0 22.4448 0.402567 22.4767C0.862645 22.9561 2.70295 21.8376 2.64544 22.6046C2.18537 22.4767 1.32272 22.9881 0.862645 23.2437C1.2077 23.4674 1.43774 23.2437 1.49525 23.6272C0.862644 23.8509 0.690116 24.3623 0 24.2983C0 24.2025 0.287548 24.1066 0.460077 24.0427C0.0575096 24.2025 0.460077 23.3716 0.920154 22.5726C1.38023 21.7737 1.84031 21.0067 1.43774 21.2943C1.95533 21.55 1.38023 22.3809 0.862645 23.1479C0.345058 23.9149 -0.172529 24.6499 0.0575096 24.554C0.690116 24.4581 0.402567 25.0973 0.977664 24.9695L1.03517 24.4581C1.7828 24.2664 2.64544 24.5221 2.64544 24.7777C2.12786 25.0014 2.24288 24.2664 2.47291 23.5633C2.70295 22.8602 2.9905 22.1572 2.70295 22.4767L3.22054 22.4128C3.04801 22.7324 2.24288 23.3396 1.49525 23.2757C1.84031 23.4994 1.43774 23.819 1.15019 24.1066L0.920154 24.1386C0.632606 24.4581 -0.0575096 24.6818 0.690116 24.8416C1.95533 24.2344 2.3579 25.0014 2.87548 25.7684C3.33556 26.5354 3.91066 27.3344 5.17587 26.855C3.45058 26.8869 4.7733 26.2478 5.75096 25.7045C6.09602 25.8323 6.95867 25.8643 7.87882 25.6406C8.45392 25.289 7.99384 25.289 7.93633 25.0973C8.45392 25.0653 9.31656 24.8416 9.60411 25.1612C9.66162 24.6179 10.6968 25.0014 11.1569 24.6499C11.5019 24.2664 10.9268 24.5221 11.0994 24.2025C11.962 23.8829 13.2272 23.4674 13.9748 23.2437C14.5499 23.4035 15.9302 23.5633 15.8727 24.1705C14.5499 24.6179 15.5276 23.3396 14.3199 23.9468C15.6426 24.2983 13.3422 24.554 13.7448 25.0973C14.4924 25.1932 15.3551 24.8736 15.9302 24.5221L15.7001 24.4901C16.2177 24.1705 17.3104 23.5314 18.4031 23.5953C18.5181 23.8509 18.9782 23.9149 18.5756 24.1386C18.8632 24.0427 19.2082 23.9468 19.4958 23.8509C19.5533 23.7551 19.5533 23.6272 19.2657 23.6911C19.4958 23.3716 20.0134 23.3077 20.4734 23.3396C20.646 23.4355 21.5086 22.7644 22.3713 22.1252C23.2339 21.486 24.0965 20.8469 24.0965 20.9428C24.7291 20.7191 25.2467 21.0067 25.6493 20.5593C25.5918 20.4634 24.2116 21.1665 23.0039 21.8695C22.3712 22.2211 21.8537 22.5726 21.4511 22.8283C21.106 23.0839 20.9335 23.2118 21.106 23.1159C21.3361 23.1159 21.7962 22.8922 22.3713 22.5726C23.0039 22.2211 23.7515 21.8056 24.4991 21.3582C25.9944 20.4634 27.6046 19.6644 28.0647 19.8242C28.5248 19.6644 29.0999 19.4088 28.7548 19.217C29.675 19.0892 28.9849 19.7603 29.79 19.7923C29.79 19.7603 29.6175 19.6964 29.8475 19.6325L30.7101 19.7603C31.6303 18.9933 34.0457 18.9614 34.9659 18.0665C34.7933 18.45 34.7933 19.0572 34.1032 19.5366L33.8157 19.4407C33.7582 19.5366 33.1255 19.8562 33.3556 20.0799C34.3333 20.016 34.9659 19.7603 35.656 19.2809C35.886 19.3129 36.1161 19.3129 36.2886 19.3449C36.2311 19.3129 36.2311 19.2809 36.1736 19.249C36.5761 19.3129 36.5761 19.3449 36.5761 19.4727C36.5761 19.5047 36.5761 19.5047 36.5761 19.5366C37.1512 19.8242 37.8413 19.5047 38.704 19.0892C39.5091 18.6737 40.4293 18.1944 41.3494 18.1944C41.752 17.9707 41.2919 18.0665 41.752 17.7789C43.5923 17.683 44.8 17.6191 46.6403 17.4593C46.9279 17.0119 46.8704 16.8841 46.0077 16.6924L47.3304 16.5006C46.8128 17.6191 50.2634 16.7882 49.6308 17.9387C50.1484 18.0346 50.896 17.9387 51.5286 17.6511C51.4711 17.4274 51.3561 17.0439 52.2188 16.8521C53.6565 16.8841 53.3114 16.8521 54.5191 16.9161C54.9217 17.1398 54.6342 17.3315 54.8067 17.5552C56.1869 16.8841 56.5895 17.9068 58.0272 17.5872C58.8899 17.3315 60.7302 16.948 60.5001 16.4367C61.7653 16.213 61.9379 16.5645 62.0529 17.0119Z" fill="#42FF8A"/>
</svg>
