<svg width="32" height="32" viewBox="0 0 32 32" fill="none" xmlns="http://www.w3.org/2000/svg">
<path d="M16 0C7.16353 0 0 7.16353 0 16C0 24.8365 7.16353 32 16 32C24.8365 32 32 24.8365 32 16C32 7.16353 24.8365 0 16 0ZM24.8825 12.1823V12.7378C24.8825 18.2923 20.7167 24.5873 13.0331 24.5873C10.6262 24.5873 8.49708 23.9393 6.64536 22.7359C7.01557 22.8284 7.29332 22.8284 7.66353 22.8284C9.60772 22.8284 11.4591 22.1804 12.8478 21.0694C10.9964 21.0694 9.51525 19.866 8.95977 18.1995C9.14504 18.292 9.42278 18.292 9.70052 18.292C10.0707 18.292 10.4409 18.1995 10.8115 18.1067C8.86729 17.7365 7.47891 16.0701 7.47891 14.0334V13.9409C8.03439 14.3112 8.68235 14.4964 9.33031 14.4964C8.21934 13.7557 7.47891 12.5522 7.47891 11.0711C7.47891 10.2378 7.66418 9.58988 8.03439 8.94192C10.1635 11.4413 13.2187 13.1077 16.6437 13.293C16.5513 13.0153 16.5513 12.7375 16.5513 12.3673C16.5513 10.0529 18.4027 8.20149 20.7171 8.20149C21.9205 8.20149 23.0315 8.6645 23.7719 9.4974C24.7901 9.31213 25.6233 8.94192 26.4565 8.47923C26.0863 9.4974 25.4384 10.2382 24.6051 10.7936C25.4384 10.7012 26.2716 10.5159 27.012 10.1457C26.4565 10.9789 25.8082 11.7193 24.8825 12.1823Z" fill="white"/>
</svg>
